HIERARCHY
ROOT Hips
{
	OFFSET 0.00000 0.00000 0.00000
	CHANNELS 6 Xposition Yposition Zposition Zrotation Yrotation Xrotation 
	JOINT LHipJoint
	{
		OFFSET 0 0 0
		CHANNELS 3 Zrotation Yrotation Xrotation
		JOINT LeftHip
		{
			OFFSET 1.62964 -1.40469 0.78906
			CHANNELS 3 Zrotation Yrotation Xrotation
			JOINT LeftKnee
			{
				OFFSET 2.29640 -6.30932 0.00000
				CHANNELS 3 Zrotation Yrotation Xrotation
				JOINT LeftAnkle
				{
					OFFSET 2.29451 -6.30412 0.00000
					CHANNELS 3 Zrotation Yrotation Xrotation
					JOINT LeftToe
					{
						OFFSET 0.03611 -0.09921 1.56387
						CHANNELS 3 Zrotation Yrotation Xrotation
						End Site
						{
							OFFSET 0.00000 -0.00000 0.80291
						}
					}
				}
			}
		}
	}
	JOINT RHipJoint
	{
		OFFSET 0 0 0
		CHANNELS 3 Zrotation Yrotation Xrotation
		JOINT RightHip
		{
			OFFSET -1.73712 -1.40469 0.78906
			CHANNELS 3 Zrotation Yrotation Xrotation
			JOINT RightKnee
			{
				OFFSET -2.28137 -6.26801 0.00000
				CHANNELS 3 Zrotation Yrotation Xrotation
				JOINT RightAnkle
				{
					OFFSET -2.28681 -6.28298 0.00000
					CHANNELS 3 Zrotation Yrotation Xrotation
					JOINT RightToe
					{
						OFFSET -0.15927 -0.43759 1.61103
						CHANNELS 3 Zrotation Yrotation Xrotation
						End Site
						{
							OFFSET -0.00000 -0.00000 0.84630
						}
					}
				}
			}
		}
	}
	JOINT lowerback
	{
		OFFSET 0 0 0
		CHANNELS 3 Zrotation Yrotation Xrotation
		JOINT Chest
		{
			OFFSET -0.04227 2.04338 -0.00225
			CHANNELS 3 Zrotation Yrotation Xrotation
			JOINT Chest2
			{
				OFFSET -0.02148 2.04482 -0.04273
				CHANNELS 3 Zrotation Yrotation Xrotation
				JOINT lowerneck
				{
					OFFSET 0 0 0
					CHANNELS 3 Zrotation Yrotation Xrotation
					JOINT Neck
					{
						OFFSET 0.09180 1.44629 0.19359
						CHANNELS 3 Zrotation Yrotation Xrotation
						JOINT Head
						{
							OFFSET 0.00887 1.40645 0.14750
							CHANNELS 3 Zrotation Yrotation Xrotation
							End Site
							{
								OFFSET -0.00669 1.50671 0.03707
							}
						}
					}
				}
				JOINT LeftCollar
				{
					OFFSET 0 0 0
					CHANNELS 3 Zrotation Yrotation Xrotation
					JOINT LeftShoulder
					{
						OFFSET 2.17674 1.86763 -0.06520
CHANNELS 3 Zrotation Xrotation Yrotation
						JOINT LeftElbow
						{
OFFSET 0 -4.657760 0.000000
CHANNELS 3 Zrotation Xrotation Yrotation
							JOINT LeftWrist
							{
OFFSET 0 -3.555390 0.000000
CHANNELS 3 Zrotation Xrotation Yrotation
								JOINT lhand
								{
									OFFSET 0 0 0
CHANNELS 3 Zrotation Xrotation Yrotation
									JOINT LFingers
									{
OFFSET 0 -0.707260 0.000000
CHANNELS 3 Zrotation Xrotation Yrotation
										End Site
										{
OFFSET 0 -0.570220 0.000000
										}
									}
								}
								JOINT LThumb
								{
OFFSET 0 0.000000 0.000000
CHANNELS 3 Zrotation Xrotation Yrotation
									End Site
									{
OFFSET 0 -0.578920 0.578920
									}
								}
							}
						}
					}
				}
				JOINT RightCollar
				{
					OFFSET 0 0 0
					CHANNELS 3 Zrotation Yrotation Xrotation
					JOINT RightShoulder
					{
						OFFSET -2.80694 1.55459 -0.32496
CHANNELS 3 Zrotation Xrotation Yrotation
						JOINT RightElbow
						{
OFFSET 0 -4.719250 -0.000000
CHANNELS 3 Zrotation Xrotation Yrotation
							JOINT RightWrist
							{
OFFSET 0 -3.569900 0.000000
CHANNELS 3 Zrotation Xrotation Yrotation
								JOINT rhand
								{
									OFFSET 0 0 0
CHANNELS 3 Zrotation Xrotation Yrotation
									JOINT RFingers
									{
OFFSET 0 -0.507760 0.000000
CHANNELS 3 Zrotation Xrotation Yrotation
										End Site
										{
OFFSET 0 -0.409370 0.000000
										}
									}
								}
								JOINT RThumb
								{
OFFSET 0 0.000000 0.000000
CHANNELS 3 Zrotation Xrotation Yrotation
									End Site
									{
OFFSET 0 -0.415620 0.415620
									}
								}
							}
						}
					}
				}
			}
		}
	}
}
MOTION
Frames: 4
Frame Time: 0.008333333333333333
9.317999 15.693879 32.077059 177.468464 -2.452265 -143.751616 0.000000 0.000000 0.000000 -9.525546 -23.577275 -53.554706 5.450358 13.873135 42.732589 1.511584 -9.326632 -22.048054 4.077592 -12.261987 -36.666602 0.000000 0.000000 0.000000 9.067410 22.458489 -51.366060 -4.770017 -13.119652 39.818662 -3.568630 0.400568 -35.762510 -3.154176 10.940496 -32.079625 -7.617652 -0.919924 1.923051 0.059515 -1.395048 1.418584 4.351013 -0.784702 0.569825 -0.725370 -2.342165 -1.579167 4.597978 -4.570994 -22.010113 1.916282 -3.450561 -6.288732 0.000000 0.000000 0.000000 18.736385 20.741007 -41.602678 18.774366 -29.137332 4.920488 23.223891 -9.096179 10.023757 0.000000 0.000000 0.000000 -7.125000 0.000000 0.000000 -2.684684 19.099048 -1.660324 0.000000 0.000000 0.000000 -2.242982 18.312461 -2.512599 -10.583445 -17.646891 -1.647468 -11.092338 19.024412 51.850098 0.000000 0.000000 0.000000 7.125000 0.000000 0.000000 63.034027 75.000933 -48.510313
9.328572 15.656190 32.088677 178.497803 -4.120964 -141.642010 0.000000 0.000000 0.000000 -6.302346 -24.228884 -57.414627 5.926255 14.353784 44.679865 1.537562 -9.769649 -22.263403 4.084261 -12.271669 -36.700025 0.000000 0.000000 0.000000 9.852296 22.686486 -54.228320 -5.008234 -13.392230 40.856522 -3.663913 0.043923 -36.347955 -3.130663 10.903563 -31.955460 -5.679872 -1.295505 0.999717 0.631799 -1.789006 0.944152 3.840023 -0.943449 0.604507 -0.602474 -2.420954 -1.529712 4.516524 -4.742067 -22.370049 1.892752 -3.568877 -6.414738 0.000000 0.000000 0.000000 18.551693 20.966010 -41.573885 18.695102 -29.037998 4.881921 23.292910 -8.871970 9.910544 0.000000 0.000000 0.000000 -7.125000 0.000000 0.000000 -2.631566 19.215725 -1.620592 0.000000 0.000000 0.000000 -2.197077 18.342540 -3.348404 -10.453152 -17.445272 -1.608211 -10.999562 19.691093 51.999160 0.000000 0.000000 0.000000 7.125000 0.000000 0.000000 63.611939 75.019716 -49.045276
9.318756 15.644003 32.026661 182.199788 -10.058381 -136.661569 0.000000 0.000000 0.000000 3.848559 -25.039887 -66.088116 6.632227 15.005907 47.454039 1.528233 -10.540936 -22.266394 4.052221 -12.229452 -36.548798 0.000000 0.000000 0.000000 14.922952 22.565617 -59.627241 -5.017392 -13.403319 40.897773 -3.778021 -0.007709 -36.932481 -3.165328 10.957965 -32.138283 1.617075 -1.863071 -3.982370 2.536545 -2.817540 -0.347277 1.531411 -1.435342 1.898461 -1.001791 -2.323986 -1.561427 4.978460 -4.594298 -22.708072 2.113225 -3.533331 -6.499415 0.000000 0.000000 0.000000 18.341799 21.270525 -41.574621 18.644071 -28.973976 4.857185 23.391477 -8.811287 9.955639 0.000000 0.000000 0.000000 -7.125000 0.000000 0.000000 -2.563183 19.158743 -1.581568 0.000000 0.000000 0.000000 -2.168787 18.544889 -3.769819 -10.388024 -17.344212 -1.588707 -11.276512 20.260395 52.120046 0.000000 0.000000 0.000000 7.125000 0.000000 0.000000 63.896869 75.168019 -49.459418
9.283273 15.490686 32.000754 186.096104 -19.036219 -123.774708 0.000000 0.000000 0.000000 21.166137 -21.711429 -85.568760 7.824510 15.961547 51.882780 1.601790 -10.326918 -22.761184 3.856080 -11.964114 -35.608229 0.000000 0.000000 0.000000 19.312339 24.831347 -74.943545 -5.210467 -13.615104 41.720480 -3.889020 0.937110 -37.223518 -3.284715 11.141414 -32.759329 11.992097 0.200562 -19.091003 4.894191 -4.238930 -3.402505 -2.532706 -2.245401 6.351139 -1.273217 -2.224696 -1.875950 5.332520 -4.430779 -22.688230 2.256908 -3.471809 -6.427334 0.000000 0.000000 0.000000 18.385008 21.548371 -41.699410 18.617732 -28.940926 4.844476 23.344643 -8.962038 10.083744 0.000000 0.000000 0.000000 -7.125000 0.000000 0.000000 -2.601168 19.024118 -1.612917 0.000000 0.000000 0.000000 -1.917685 18.624713 -4.233042 -10.290150 -17.192047 -1.559657 -11.603839 21.061931 52.235201 0.000000 0.000000 0.000000 7.125000 0.000000 0.000000 64.143511 75.332880 -49.857695
